<svg width="16" height="15" viewBox="0 0 16 15" fill="none" xmlns="http://www.w3.org/2000/svg">
<path fill-rule="evenodd" clip-rule="evenodd" d="M10.5223 0.0146859C10.5333 -0.000891705 10.5547 -0.00467748 10.5703 0.0062301L11.6353 0.751998C11.6509 0.762905 11.6547 0.784374 11.6438 0.799951L10.1614 2.91701C10.8821 3.14725 11.3731 3.3956 11.3731 3.3956C11.3731 3.3956 10.173 5.45991 8.13744 5.45991C6.10193 5.45991 4.65551 3.53593 4.65551 3.53593C4.65551 3.53593 5.16838 3.20862 5.92863 2.9279L4.30266 0.990164C4.29044 0.975595 4.29235 0.953877 4.30691 0.941654L5.30291 0.105898C5.3175 0.0936744 5.33921 0.0955743 5.35143 0.110142L7.41018 2.56366C7.58646 2.54372 7.76605 2.53258 7.94728 2.53258C8.20776 2.53258 8.46791 2.55238 8.72189 2.58599L10.5223 0.0146859ZM10.925 5.55768C11.4682 5.16973 12.2902 4.15717 12.2902 4.15717C12.2902 4.15717 14.3897 5.82094 14.3897 9.34875C14.3897 12.8765 10.76 14.9998 10.76 14.9998C10.76 14.9998 9.02572 13.2484 8.59998 11.0282C8.17427 8.80808 9.22975 6.34286 9.22975 6.34286C9.22975 6.34286 10.3818 5.94562 10.925 5.55768ZM5.07495 5.55768C4.53176 5.16973 3.70981 4.15717 3.70981 4.15717C3.70981 4.15717 1.61028 5.82094 1.61028 9.34875C1.61028 12.8765 5.24004 14.9998 5.24004 14.9998C5.24004 14.9998 6.97427 13.2484 7.40001 11.0282C7.82572 8.80808 6.77025 6.34286 6.77025 6.34286C6.77025 6.34286 5.61818 5.94562 5.07495 5.55768Z" fill="#455160"/>
</svg>
