<svg width="16" height="15" viewBox="0 0 16 15" fill="none" xmlns="http://www.w3.org/2000/svg">
<path fill-rule="evenodd" clip-rule="evenodd" d="M8.72767 7.46722C8.82933 7.40522 8.91558 7.27532 8.98513 7.13095C9.90052 7.50507 10.5438 8.38913 10.5438 9.42012C10.5438 10.7897 9.40853 11.9001 8.00814 11.9001C7.43328 11.9001 6.90309 11.7129 6.47779 11.3976C6.33828 11.3316 6.2235 11.2681 6.12957 11.2162C5.98388 11.1356 5.88834 11.0828 5.82851 11.0911C5.65364 11.1152 5.70441 11.2761 5.75056 11.4222C5.78187 11.5215 5.81108 11.614 5.76588 11.6522C5.71859 11.6921 5.56543 11.5461 5.38645 11.3754C5.14282 11.1432 4.85138 10.8653 4.71394 10.9487C4.60528 11.0147 4.71078 11.1938 4.83992 11.4129L4.8495 11.4292C4.90405 11.5218 4.96727 11.6162 5.02496 11.7022C5.14223 11.8772 5.23669 12.0181 5.18943 12.042C5.1323 12.0708 4.73428 11.8022 4.39886 11.4292C4.26939 11.2852 4.144 11.1292 4.02746 10.9842V10.9842C3.77237 10.6668 3.55985 10.4024 3.44056 10.4337C3.29704 10.4714 3.40561 10.7674 3.56513 11.0522C3.63972 11.1855 3.72746 11.3211 3.80343 11.4386V11.4386C3.92158 11.6212 4.01126 11.7598 3.97874 11.7769C3.93485 11.7998 3.54869 11.4233 3.28641 10.9487C3.13062 10.6669 2.99981 10.3554 2.89391 10.1032C2.77906 9.82975 2.69351 9.62604 2.63718 9.60554C2.44146 9.53432 2.44146 9.93337 2.51996 10.5093C2.5302 10.5845 2.54544 10.6633 2.56422 10.7435C3.32548 13.2066 5.66398 15 8.43075 15C11.815 15 14.5585 12.3168 14.5585 9.0068C14.5585 5.85645 12.0733 3.27384 8.9157 3.03205C8.91969 2.88364 8.99715 2.58935 8.99715 2.58935C8.99715 2.58935 9.55458 1.24064 9.58405 0.952438C9.58599 0.933311 9.5883 0.912524 9.59079 0.890388C9.62551 0.578991 9.69011 0 9.192 0C8.92598 0 8.80229 0.19789 8.66082 0.424216V0.424219C8.6065 0.511104 8.54955 0.602183 8.48094 0.687861C7.98676 1.30499 7.15578 2.07565 6.6846 2.48622C5.68868 3.35402 4.71157 4.06723 4.14169 4.48318L4.14166 4.48321C3.88247 4.67238 3.70754 4.80009 3.6534 4.85285C3.24541 5.25059 1.78255 7.88924 1.78255 7.88924C1.78255 7.88924 1.30948 8.7358 1.47763 8.90751C1.64578 9.07919 2.05127 9.03984 2.05127 9.03984C2.05127 9.03984 7.49876 7.79013 7.98646 7.69157C8.11777 7.66503 8.21047 7.64971 8.28163 7.63796C8.47484 7.60606 8.50953 7.60031 8.72767 7.46722ZM4.8761 5.86125C4.58369 6.13919 4.09874 6.80262 4.09874 6.80262C4.09874 6.80262 5.00003 6.85813 5.49641 6.38631C5.99281 5.91445 5.87908 5.11034 5.87908 5.11034C5.87908 5.11034 5.16848 5.58331 4.8761 5.86125Z" fill="#455160"/>
</svg>
