<svg width="15" height="15" viewBox="0 0 15 15" fill="none" xmlns="http://www.w3.org/2000/svg">
<path fill-rule="evenodd" clip-rule="evenodd" d="M5.23573 14C7.43309 14 9.3143 12.7788 10.0909 11.0475C10.1004 11.0264 6.97289 11.8603 7.07262 11.5655C7.11715 11.4339 9.03434 10.7335 10.4311 9.91663C11.2339 9.44709 11.6036 8.45313 11.6036 8.45313C11.6036 8.45313 10.2511 9.10982 9.56734 9.2764C8.18944 9.61215 6.97652 9.57599 6.97652 9.54101C6.97652 9.46537 8.99054 9.08269 11.7898 7.37688C13.1065 6.57453 13.4641 5.19248 13.4641 5.19248C13.4641 5.19248 12.0165 6.05474 11.1414 6.33942C9.06615 7.01451 7.17235 7.21795 7.17235 7.1266C7.17235 6.93101 8.83896 6.47272 10.606 5.61652C11.5247 5.17136 12.3204 4.58975 13.2425 3.94297C14.7512 2.88473 15 1.00001 15 1.00001C15 1.00001 13.512 1.95978 12.7858 2.27851C9.78932 3.59369 7.14346 4.28357 5.23573 4.43293C2.35597 4.6584 3.05176e-05 6.66766 3.05176e-05 9.2764C3.05176e-05 11.8852 2.34413 14 5.23573 14Z" fill="#455160"/>
</svg>
