<svg width="16" height="15" viewBox="0 0 16 15" fill="none" xmlns="http://www.w3.org/2000/svg">
<path fill-rule="evenodd" clip-rule="evenodd" d="M3.46285 12.8796C3.41136 12.8312 3.36045 12.7818 3.31012 12.7315C0.653346 10.0747 0.653346 5.76722 3.31012 3.11046C5.96688 0.453675 14.4324 0.27594 14.4324 0.27594C14.4324 0.27594 15.5879 10.0747 12.9312 12.7315C10.5716 15.091 6.91001 15.355 4.25914 13.5234L6.39511 10.9022L9.80966 10.165L7.02239 9.88633L8.79374 8.08275L10.8101 7.64105L9.21567 7.16887L10.8101 4.29262L8.54219 6.83641L7.66642 5.60058L7.97471 7.64105L6.39511 9.42177L5.6629 7.16884V10.165L3.46285 12.8796Z" fill="#455160"/>
</svg>
