<svg width="16" height="15" viewBox="0 0 16 15" fill="none" xmlns="http://www.w3.org/2000/svg">
<g clip-path="url(#clip0_1_602)">
<path fill-rule="evenodd" clip-rule="evenodd" d="M3.80369 12.8952C3.79961 12.8952 3.79677 12.8911 3.79812 12.8873L7.62766 2.06644C7.62851 2.06409 7.63074 2.06252 7.63323 2.06252H11.7214C11.7239 2.06252 11.7261 2.0641 11.7269 2.06647L15.4997 12.8873C15.501 12.8912 15.4981 12.8952 15.4941 12.8952H3.91876H3.80369ZM0.505951 12.9375C0.501838 12.9375 0.49899 12.9334 0.500433 12.9295L3.35218 5.31611C3.35304 5.31379 3.35524 5.31227 3.3577 5.31227H5.83554C5.83964 5.31227 5.84248 5.31634 5.84108 5.32018L3.08352 12.9336C3.08268 12.9359 3.08046 12.9375 3.07798 12.9375H0.505951Z" fill="#455160"/>
</g>
<defs>
<clipPath id="clip0_1_602">
<rect width="15" height="15" fill="white" transform="translate(0.5)"/>
</clipPath>
</defs>
</svg>
