<svg width="15" height="15" viewBox="0 0 15 15" fill="none" xmlns="http://www.w3.org/2000/svg">
<g clip-path="url(#clip0_1_586)">
<path fill-rule="evenodd" clip-rule="evenodd" d="M13.3655 12.4582C13.3655 12.4582 11.4741 13.9752 7.71031 13.3474C4.85474 12.8711 3.33171 9.7233 3.33171 8.03128C3.33171 4.01966 6.30083 3.10674 8.30817 3.10674C10.3155 3.10674 11.625 5.06377 11.625 6.57901C11.625 8.09424 10.5533 9.41957 8.88549 9.41957C7.21774 9.41957 6.72379 8.24873 6.72379 7.17227C6.72379 6.09584 7.5947 5.7166 8.38897 5.7166C9.18324 5.7166 9.4552 6.3947 9.4552 6.9775C9.4552 7.56034 9.003 7.76905 8.62583 7.76905C8.24866 7.76905 8.21137 7.57876 8.06702 7.37878C7.92265 7.17883 8.25113 6.42192 7.71031 6.42192C7.16949 6.42192 7.06867 7.29207 7.06867 7.29207C7.06867 7.29207 7.26584 8.97174 8.88549 8.94277C10.5052 8.91376 11.2735 7.66162 11.0502 6.42192C10.8269 5.18219 9.6238 3.86486 7.51226 4.13105C5.40072 4.39724 4.5386 6.53076 4.91861 8.81076C5.29862 11.0908 8.03005 12.4118 10.1777 11.9366C12.3253 11.4613 14.4643 9.90649 14.4643 5.96451C14.4643 2.02249 11.0502 -0.347013 6.97929 0.0434944C2.90834 0.434 0.381281 3.99309 0.543035 8.26941C0.704789 12.5457 4.76251 14.8747 8.19373 14.9948C11.625 15.1148 13.7284 13.1286 13.7284 13.1286C13.7284 13.1286 14.2015 12.7067 14.016 12.3773C13.8306 12.0479 13.3655 12.4582 13.3655 12.4582Z" fill="#455160"/>
</g>
<defs>
<clipPath id="clip0_1_586">
<rect width="15" height="15" fill="white"/>
</clipPath>
</defs>
</svg>
