<svg width="15" height="15" viewBox="0 0 15 15" fill="none" xmlns="http://www.w3.org/2000/svg">
<path fill-rule="evenodd" clip-rule="evenodd" d="M12.3658 10.1518C12.3658 12.829 10.1873 14.9993 7.5 14.9993C4.81269 14.9993 2.6342 12.829 2.6342 10.1518C2.6342 7.54802 7.2368 0.396911 7.48922 0.00667412C7.49499 -0.00222476 7.50504 -0.00222468 7.51078 0.00667421C7.76321 0.396911 12.3658 7.54802 12.3658 10.1518ZM6.68889 13.4452C4.21975 12.905 4.64227 10.1698 4.64227 10.1698C4.64227 10.1698 5.31651 11.8209 6.95271 12.3558C8.58888 12.8906 10.5662 12.1062 10.5662 12.1062C10.5662 12.1062 9.15803 13.9855 6.68889 13.4452Z" fill="#455160"/>
</svg>
